<?xml version="1.0" encoding="UTF-8" standalone="no"?>
<svg
   xmlns:dc="http://purl.org/dc/elements/1.1/"
   xmlns:cc="http://creativecommons.org/ns#"
   xmlns:rdf="http://www.w3.org/1999/02/22-rdf-syntax-ns#"
   xmlns:svg="http://www.w3.org/2000/svg"
   xmlns="http://www.w3.org/2000/svg"
   xmlns:sodipodi="http://sodipodi.sourceforge.net/DTD/sodipodi-0.dtd"
   xmlns:inkscape="http://www.inkscape.org/namespaces/inkscape"
   inkscape:version="1.0rc1 (09960d6f05, 2020-04-09)"
   height="388.06601"
   width="388.06601"
   sodipodi:docname="sleeping.svg"
   version="1.1"
   viewBox="0 0 388.066 388.06601"
   id="frames">
  <metadata
     id="metadata8">
    <rdf:RDF>
      <cc:Work
         rdf:about="">
        <dc:format>image/svg+xml</dc:format>
        <dc:type
           rdf:resource="http://purl.org/dc/dcmitype/StillImage" />
        <dc:title></dc:title>
      </cc:Work>
    </rdf:RDF>
  </metadata>
  <defs
     id="defs6" />
  <sodipodi:namedview
     inkscape:current-layer="frames"
     inkscape:window-maximized="0"
     inkscape:window-y="27"
     inkscape:window-x="0"
     inkscape:cy="194.033"
     inkscape:cx="84.092457"
     inkscape:zoom="1.4507841"
     lock-margins="false"
     showgrid="false"
     id="namedview4"
     inkscape:window-height="760"
     inkscape:window-width="2135"
     inkscape:pageshadow="2"
     inkscape:pageopacity="0"
     guidetolerance="10"
     gridtolerance="10"
     objecttolerance="10"
     borderopacity="1"
     bordercolor="#666666"
     pagecolor="#ffffff" />
  <path
     inkscape:connector-curvature="0"
     d="m 218.504,85.393992 v -10.809 h 40.16 v 11.042 l -24.918,28.837998 h 25.8 v 10.9 h -42.812 v -10.341 l 25.172,-29.629998 z m 50.538,55.799998 v -7.225 h 30.575 v 7.383 l -18.971,19.281 h 19.645 v 7.289 h -32.6 v -6.915 l 19.168,-19.811 z m 96.61,81.888 c 0,0 11.752,-20.337 9.131,-34.046 -1.842,-9.637 -31.391,18.589 -31.391,18.589 l -6.092,-1.557 c 0,0 8.033,-29.068 0.383,-30.981 -7.65,-1.913 -29.451,15.3 -41.308,30.981 0,0 -20.654,5.119 -29.068,31.437 -8.414,26.318 -45.515,-29.142 -58.52,-37.939 -13.005,-8.797 -28.685,-26.773 -70.376,-13.769 -41.690997,13.004 -54.688997,34.988 -54.693997,53.549 0,15.3 2.677,22.184 -1.53,28.686 0,0 -47.427,-4.972 -43.6,-43.6 3.827,-38.628 32.129,-32.511 36.718,-32.893 4.589,-0.382 14.152,-4.972 12.24,-16.447 -1.912,-11.475 -19.51,-16.832 -33.279,-11.477 -13.769,5.355 -43.6,19.124 -43.6,61.579 0,42.455 25.626,61.937 69.229,74.966 43.602997,13.029 104.413997,13.025 123.533997,13.025 19.12,0 125.453,2.27 132.72,-5.762 0,0 41.251,-12.68 41.251,-44.347 0.004,-25.239 -3.591,-31.012 -11.748,-39.991 z m -38.823,-20.335 c 0,0 -5.915,-2.07 -14.787,0 0,0 10.942,-11.534 14.787,-11.534 3.845,0 0,11.534 0,11.534 z m 31.708,14.586 c -1.774,-2.366 -6.323,-4.549 -6.323,-4.549 0,0 8.775,-7.195 9.366,-5.124 0.591,2.071 -3.042,9.673 -3.042,9.673 z"
     id="sleep"
     fill="#bebebe" />
</svg>
