<?xml version="1.0" encoding="UTF-8"?>
<svg width="388" height="388" version="1.1" xmlns="http://www.w3.org/2000/svg" xmlns:cc="http://creativecommons.org/ns#" xmlns:dc="http://purl.org/dc/elements/1.1/" xmlns:rdf="http://www.w3.org/1999/02/22-rdf-syntax-ns#">
 <metadata>
  <rdf:RDF>
   <cc:Work rdf:about="">
    <dc:format>image/svg+xml</dc:format>
    <dc:type rdf:resource="http://purl.org/dc/dcmitype/StillImage"/>
    <dc:title>RunCat: Sleeping Frame 0</dc:title>
   </cc:Work>
  </rdf:RDF>
 </metadata>
 <title>RunCat: Sleeping Frame 0</title>
 <path transform="rotate(10)" d="m232.3 14.612c-6.8476 1.3941-11.97 7.4251-11.97 14.696l8.1e-4 42.104 17.648-2.7708 12.351 25.032 5.9e-4 -64.367c0-8.31-6.6902-14.998-15-14.998-1.0388 0-2.0524 0.10318-3.0306 0.30234zm18.03 79.062-7e-5 125.64c0 8.31-6.6904 14.999-15 14.999-8.31 0-14.999-6.6904-14.999-15l-1e-4 -147.9-41.285 6.4823-14.796 206.16 166.09-28.219-80.011-162.16z" fill="#bebebe"/>
</svg>
