<?xml version="1.0" encoding="UTF-8"?>
<svg width="388" height="388" version="1.1" xmlns="http://www.w3.org/2000/svg" xmlns:cc="http://creativecommons.org/ns#" xmlns:dc="http://purl.org/dc/elements/1.1/" xmlns:rdf="http://www.w3.org/1999/02/22-rdf-syntax-ns#">
 <metadata>
  <rdf:RDF>
   <cc:Work rdf:about="">
    <dc:format>image/svg+xml</dc:format>
    <dc:type rdf:resource="http://purl.org/dc/dcmitype/StillImage"/>
    <dc:title>RunCat: Sleeping Frame 0</dc:title>
   </cc:Work>
  </rdf:RDF>
 </metadata>
 <title>RunCat: Sleeping Frame 0</title>
 <path d="m192.12 53.889v2.4902h5.3926l-5.7988 6.8262v2.3828h9.8613v-2.5117h-5.9434l5.7402-6.6426v-2.5449zm26.379 20.697v10.809h23.402l-25.172 29.629v10.342h42.812v-10.9h-25.801l24.918-28.838v-11.041zm50.539 59.383v7.2246l17.816 2e-3 -19.168 19.812v6.9141h32.6v-7.2891h-19.645l18.971-19.281v-7.3828zm-204.04 27.566c-3.616 0.0715-7.298 0.74132-10.74 2.0801-13.769 5.355-43.6 19.123-43.6 61.578s25.626 61.938 69.229 74.967c43.603 13.029 104.42 13.025 123.54 13.025s125.45 2.2703 132.72-5.7617c0 0 41.252-12.681 41.252-44.348 4e-3 -25.239-3.591-31.011-11.748-39.99v-4e-3s11.752-20.338 9.1309-34.047c-1.842-9.637-31.391 18.59-31.391 18.59l-6.0918-1.5566s8.0328-29.067 0.38281-30.98-29.452 15.299-41.309 30.98c0 0-20.654 5.1195-29.068 31.438s-45.515-29.142-58.52-37.939-28.686-26.774-70.377-13.77c-41.691 13.004-54.688 34.988-54.693 53.549 0 15.3 2.6777 22.184-1.5293 28.686 0 0-47.427-4.9716-43.6-43.6s32.128-32.511 36.717-32.893c4.589-0.382 14.152-4.9723 12.24-16.447-1.434-8.6062-11.691-13.771-22.539-13.557zm261.82 29.678c3.845 0 0 11.533 0 11.533s-5.9132-2.07-14.785 0c0 0 10.94-11.533 14.785-11.533zm34.18 16.072c0.2965 1e-3 0.49839 0.11612 0.57227 0.375 0.591 2.071-3.043 9.6719-3.043 9.6719-1.774-2.366-6.3223-4.5488-6.3223-4.5488s6.7175-5.5083 8.793-5.498z" fill="#bebebe"/>
</svg>
