<?xml version="1.0" encoding="UTF-8"?>
<svg width="388" height="388" version="1.1" xmlns="http://www.w3.org/2000/svg" xmlns:cc="http://creativecommons.org/ns#" xmlns:dc="http://purl.org/dc/elements/1.1/" xmlns:rdf="http://www.w3.org/1999/02/22-rdf-syntax-ns#">
 <metadata>
  <rdf:RDF>
   <cc:Work rdf:about="">
    <dc:format>image/svg+xml</dc:format>
    <dc:type rdf:resource="http://purl.org/dc/dcmitype/StillImage"/>
    <dc:title>RunCat: Sleeping Frame 4</dc:title>
   </cc:Work>
  </rdf:RDF>
 </metadata>
 <title>RunCat: Sleeping Frame 4</title>
 <path d="m200.48 59.59v7.3418h15.893l-17.096 20.123v7.0234h29.078v-7.4023h-17.523l16.924-19.586v-7.5zm42.402 47.033v9.0527l22.324 2e-3 -24.016 24.822v8.6641h40.844v-9.1328h-24.613l23.77-24.158v-9.25zm-177.88 54.912c-3.616 0.0715-7.298 0.74132-10.74 2.0801-13.769 5.355-43.6 19.123-43.6 61.578s25.626 61.938 69.229 74.967c43.603 13.029 79.581 13.225 98.701 13.225s150.29 2.0708 157.55-5.9612c0 0 41.252-12.681 41.252-44.348 4e-3 -25.239-3.591-31.011-11.748-39.99v-4e-3s11.752-20.338 9.1309-34.047c-1.842-9.637-31.391 18.59-31.391 18.59l-6.0918-1.5566s8.0328-29.067 0.38281-30.98-29.452 15.299-41.309 30.98c0 0-20.654 5.1195-29.068 31.438s-39.216-30.829-52.221-39.626-33.737-25.037-75.428-12.033-55.935 34.938-55.94 53.499c0 15.3 2.6777 22.184-1.5293 28.686 0 0-47.427-4.9716-43.6-43.6s32.128-32.511 36.717-32.893c4.589-0.382 14.152-4.9723 12.24-16.447-1.434-8.6062-11.691-13.771-22.539-13.557zm224.54 5.209v4.1641h9.0156l-9.6973 11.412v3.9844h16.492v-4.1992h-9.9395l9.5996-11.107v-4.2539zm37.279 24.469c3.845 0 0 11.533 0 11.533s-5.9132-2.07-14.785 0c0 0 10.94-11.533 14.785-11.533zm34.18 16.072c0.2965 1e-3 0.49839 0.11612 0.57227 0.375 0.591 2.071-3.043 9.6719-3.043 9.6719-1.774-2.366-6.3223-4.5488-6.3223-4.5488s6.7175-5.5083 8.793-5.498z" fill="#bebebe"/>
</svg>
