<?xml version="1.0" encoding="UTF-8"?>
<svg width="388" height="388" version="1.1" xmlns="http://www.w3.org/2000/svg" xmlns:cc="http://creativecommons.org/ns#" xmlns:dc="http://purl.org/dc/elements/1.1/" xmlns:rdf="http://www.w3.org/1999/02/22-rdf-syntax-ns#">
 <metadata>
  <rdf:RDF>
   <cc:Work rdf:about="">
    <dc:format>image/svg+xml</dc:format>
    <dc:type rdf:resource="http://purl.org/dc/dcmitype/StillImage"/>
    <dc:title>RunCat: Sleeping Frame 5</dc:title>
   </cc:Work>
  </rdf:RDF>
 </metadata>
 <title>RunCat: Sleeping Frame 5</title>
 <path d="m196.91 56.535v6.2031h13.43l-14.445 17.002v5.9336h24.566v-6.2539h-14.805l14.299-16.549v-6.3359zm38.248 41.059v9.4707l23.352 2e-3 -25.121 25.965v9.0625h42.725v-9.5527h-25.746l24.863-25.27v-9.6777zm46.213 55.729v6.084h13.172l-14.17 16.68v5.8203h24.1v-6.1348h-14.523l14.027-16.234v-6.2148zm-216.37 8.2129c-3.616 0.0715-7.298 0.74132-10.74 2.0801-13.769 5.355-43.6 19.123-43.6 61.578s25.626 61.938 69.229 74.967c43.603 13.029 82.966 12.505 102.09 12.505s146.9 2.7902 154.17-5.2418c0 0 41.252-12.681 41.252-44.348 4e-3 -25.239-3.591-31.011-11.748-39.99v-4e-3s11.752-20.338 9.1309-34.047c-1.842-9.637-31.391 18.59-31.391 18.59l-6.0918-1.5566s8.0328-29.067 0.38281-30.98-29.452 15.299-41.309 30.98c0 0-20.654 5.1195-29.068 31.438s-44.266-31.685-57.271-40.482-29.934-23.192-71.625-10.188c-41.691 13.004-54.688 33.949-54.693 52.51 0 15.3 2.6777 22.184-1.5293 28.686 0 0-47.427-4.9716-43.6-43.6s32.128-32.511 36.717-32.893c4.589-0.382 14.152-4.9723 12.24-16.447-1.434-8.6062-11.691-13.771-22.539-13.557zm261.82 29.678c3.845 0 0 11.533 0 11.533s-5.9132-2.07-14.785 0c0 0 10.94-11.533 14.785-11.533zm34.18 16.072c0.2965 1e-3 0.49839 0.11612 0.57227 0.375 0.591 2.071-3.043 9.6719-3.043 9.6719-1.774-2.366-6.3223-4.5488-6.3223-4.5488s6.7175-5.5083 8.793-5.498z" fill="#bebebe"/>
</svg>
