<?xml version="1.0" encoding="UTF-8"?>
<svg width="388" height="388" version="1.1" xmlns="http://www.w3.org/2000/svg" xmlns:cc="http://creativecommons.org/ns#" xmlns:dc="http://purl.org/dc/elements/1.1/" xmlns:rdf="http://www.w3.org/1999/02/22-rdf-syntax-ns#">
 <metadata>
  <rdf:RDF>
   <cc:Work rdf:about="">
    <dc:format>image/svg+xml</dc:format>
    <dc:type rdf:resource="http://purl.org/dc/dcmitype/StillImage"/>
    <dc:title>RunCat: Sleeping Frame 7</dc:title>
   </cc:Work>
  </rdf:RDF>
 </metadata>
 <title>RunCat: Sleeping Frame 7</title>
 <path d="m276.2 139.38v7.0382l16.665 3e-3 -17.927 19.3v6.7366h30.493v-7.1009h-18.376l17.745-18.783v-7.1928zm-81.347-82.434v2.5121h5.4382l-5.8498 6.8849v2.4031h9.949v-2.5326h-5.9963l5.7905-6.7009v-2.5665zm28.917 23.711v10.323l24.443 0.0042-26.295 28.307v9.8807h44.724v-10.415h-26.952l26.027-27.55v-10.55zm-158.76 80.878c-3.616 0.0715-7.298 0.74132-10.74 2.0801-13.769 5.355-43.6 19.123-43.6 61.578s25.626 61.938 69.229 74.967 98.91 10.836 118.03 10.836 130.96 4.4595 138.22-3.5725c0 0 41.252-12.681 41.252-44.348 4e-3 -25.239-3.591-31.011-11.748-39.99v-4e-3s11.752-20.338 9.1309-34.047c-1.842-9.637-31.391 18.59-31.391 18.59l-6.0918-1.5566s8.0328-29.067 0.38281-30.98-29.452 15.299-41.309 30.98c0 0-20.654 5.1195-29.068 31.438s-45.307-29.656-58.312-38.453-28.894-26.26-70.585-13.256-54.688 34.988-54.693 53.549c0 15.3 2.6777 22.184-1.5293 28.686 0 0-47.427-4.9716-43.6-43.6s32.128-32.511 36.717-32.893 14.152-4.9723 12.24-16.447c-1.434-8.6062-11.691-13.771-22.539-13.557zm261.82 29.678c3.845 0 0 11.533 0 11.533s-5.9132-2.07-14.785 0c0 0 10.94-11.533 14.785-11.533zm34.18 16.072c0.2965 1e-3 0.49839 0.11612 0.57227 0.375 0.591 2.071-3.043 9.6719-3.043 9.6719-1.774-2.366-6.3223-4.5488-6.3223-4.5488s6.7175-5.5083 8.793-5.498z" fill="#bebebe"/>
</svg>
