<?xml version="1.0" encoding="UTF-8"?>
<svg width="388" height="388" version="1.1" xmlns="http://www.w3.org/2000/svg" xmlns:cc="http://creativecommons.org/ns#" xmlns:dc="http://purl.org/dc/elements/1.1/" xmlns:rdf="http://www.w3.org/1999/02/22-rdf-syntax-ns#">
 <metadata>
  <rdf:RDF>
   <cc:Work rdf:about="">
    <dc:format>image/svg+xml</dc:format>
    <dc:type rdf:resource="http://purl.org/dc/dcmitype/StillImage"/>
    <dc:title>RunCat: Sleeping Frame 3</dc:title>
   </cc:Work>
  </rdf:RDF>
 </metadata>
 <title>RunCat: Sleeping Frame 3</title>
 <path d="m297.48 165.54v3.9989l9.8612 8.8e-4 -10.609 10.965v3.8272h18.042v-4.0342h-10.872l10.5-10.671v-4.086zm-91.985-102.95v8.5254h18.459l-19.855 23.373v8.1562h33.771v-8.5977h-20.352l19.654-22.748v-8.709zm43.332 52.225v8.543l21.068 2e-3 -22.666 23.428v8.1758h38.551v-8.6191h-23.23l22.434-22.799v-8.7305zm-183.83 46.719c-3.616 0.0715-7.298 0.74132-10.74 2.0801-13.769 5.355-43.6 19.123-43.6 61.578s25.626 61.938 69.229 74.967 75.508 13.914 94.628 13.914 154.36 1.3814 161.63-6.6506c0 0 41.252-12.681 41.252-44.348 4e-3 -25.239-3.591-31.011-11.748-39.99v-4e-3s11.752-20.338 9.1309-34.047c-1.842-9.637-31.391 18.59-31.391 18.59l-6.0918-1.5566s8.0328-29.067 0.38281-30.98-29.452 15.299-41.309 30.98c0 0-20.654 5.1195-29.068 31.438s-25.719-31.093-45.402-43.708c-17.662-11.319-41.803-21.005-83.494-8.0014-41.691 13.004-54.688 34.988-54.693 53.549 0 15.3 2.6777 22.184-1.5293 28.686 0 0-47.427-4.9716-43.6-43.6s32.128-32.511 36.717-32.893 14.152-4.9723 12.24-16.447c-1.434-8.6062-11.691-13.771-22.539-13.557zm261.82 29.678c3.845 0 0 11.533 0 11.533s-5.9132-2.07-14.785 0c0 0 10.94-11.533 14.785-11.533zm34.18 16.072c0.2965 1e-3 0.49839 0.11612 0.57227 0.375 0.591 2.071-3.043 9.6719-3.043 9.6719-1.774-2.366-6.3223-4.5488-6.3223-4.5488s6.7175-5.5083 8.793-5.498z" fill="#bebebe" stroke-width=".44173"/>
</svg>
