<?xml version="1.0" encoding="UTF-8"?>
<svg width="388" height="388" version="1.1" xmlns="http://www.w3.org/2000/svg" xmlns:cc="http://creativecommons.org/ns#" xmlns:dc="http://purl.org/dc/elements/1.1/" xmlns:rdf="http://www.w3.org/1999/02/22-rdf-syntax-ns#">
 <metadata>
  <rdf:RDF>
   <cc:Work rdf:about="">
    <dc:format>image/svg+xml</dc:format>
    <dc:type rdf:resource="http://purl.org/dc/dcmitype/StillImage"/>
    <dc:title>RunCat: Sleeping Frame 6</dc:title>
   </cc:Work>
  </rdf:RDF>
 </metadata>
 <title>RunCat: Sleeping Frame 6</title>
 <path d="m280.52 145.23v6.5952l15.616 3e-3 -16.799 18.085v6.3126h28.573v-6.654h-17.219l16.628-17.601v-6.7402zm-87.267-89.72v4.9512h10.719l-11.529 13.572v4.7363h19.607v-4.9922h-11.816l11.412-13.209v-5.0586zm35.248 36.244v9.5645l23.586 4e-3 -25.375 26.227v9.1543h43.158v-9.6504h-26.008l25.115-25.525v-9.7734zm-163.49 69.779c-3.616 0.0715-7.298 0.74132-10.74 2.0801-13.769 5.355-43.6 19.123-43.6 61.578s25.626 61.938 69.229 74.967 87.243 11.736 106.36 11.736 142.62 3.5595 149.89-4.4725c0 0 41.252-12.681 41.252-44.348 4e-3 -25.239-3.591-31.011-11.748-39.99v-4e-3s11.752-20.338 9.1309-34.047c-1.842-9.637-31.391 18.59-31.391 18.59l-6.0918-1.5566s8.0328-29.067 0.38281-30.98-29.452 15.299-41.309 30.98c0 0-20.654 5.1195-29.068 31.438s-45.714-30.678-58.719-39.475-28.486-25.238-70.177-12.234-54.688 34.988-54.693 53.549c0 15.3 2.6777 22.184-1.5293 28.686 0 0-47.427-4.9716-43.6-43.6s32.128-32.511 36.717-32.893 14.152-4.9723 12.24-16.447c-1.434-8.6062-11.691-13.771-22.539-13.557zm261.82 29.678c3.845 0 0 11.533 0 11.533s-5.9132-2.07-14.785 0c0 0 10.94-11.533 14.785-11.533zm34.18 16.072c0.2965 1e-3 0.49839 0.11612 0.57227 0.375 0.591 2.071-3.043 9.6719-3.043 9.6719-1.774-2.366-6.3223-4.5488-6.3223-4.5488s6.7175-5.5083 8.793-5.498z" fill="#bebebe"/>
</svg>
