<?xml version="1.0" encoding="UTF-8" standalone="no"?>
<svg
   xmlns:dc="http://purl.org/dc/elements/1.1/"
   xmlns:cc="http://creativecommons.org/ns#"
   xmlns:rdf="http://www.w3.org/1999/02/22-rdf-syntax-ns#"
   xmlns:svg="http://www.w3.org/2000/svg"
   xmlns="http://www.w3.org/2000/svg"
   xmlns:sodipodi="http://sodipodi.sourceforge.net/DTD/sodipodi-0.dtd"
   xmlns:inkscape="http://www.inkscape.org/namespaces/inkscape"
   inkscape:version="1.0rc1 (09960d6f05, 2020-04-09)"
   height="388.06601"
   width="388.06601"
   sodipodi:docname="0.svg"
   version="1.1"
   viewBox="0 0 388.066 388.06601"
   id="frames">
  <metadata
     id="metadata8">
    <rdf:RDF>
      <cc:Work
         rdf:about="">
        <dc:format>image/svg+xml</dc:format>
        <dc:type
           rdf:resource="http://purl.org/dc/dcmitype/StillImage" />
        <dc:title></dc:title>
      </cc:Work>
    </rdf:RDF>
  </metadata>
  <defs
     id="defs6" />
  <sodipodi:namedview
     inkscape:current-layer="frames"
     inkscape:window-maximized="1"
     inkscape:window-y="27"
     inkscape:window-x="0"
     inkscape:cy="139.74926"
     inkscape:cx="135.22032"
     inkscape:zoom="2.712"
     showgrid="false"
     id="namedview4"
     inkscape:window-height="875"
     inkscape:window-width="2560"
     inkscape:pageshadow="2"
     inkscape:pageopacity="0"
     guidetolerance="10"
     gridtolerance="10"
     objecttolerance="10"
     borderopacity="1"
     bordercolor="#666666"
     pagecolor="#ffffff" />
  <path
     inkscape:connector-curvature="0"
     d="m 321.24,116.28019 c -0.01,-13.464 1.661,-33.778997 -8.15,-35.162997 -9.811,-1.384 -25.074,26.578997 -25.074,26.578997 l -4.43,0.554 c 0,0 3.6,-26.025997 -8.86,-23.256997 -12.46,2.769 -27.687,41.810997 -27.687,41.810997 0,0 -5.538,4.429 -9.414,18.3 -3.876,13.871 -18.55,14.09 -42.915,11.045 -24.365,-3.045 -47.345,17.443 -47.345,17.443 -22.15,-0.831 -40.977,2.215 -55.374,7.752 -14.397,5.537 -32.117,23.811 -55.375,22.15 -23.258,-1.661 -34.332,2.492 -32.947,10.521 1.385,8.029 9.413,9.414 22.426,10.8 13.013,1.386 44.853,-7.476 65.342,-19.381 a 78.147,78.147 0 0 1 41.53,-10.143 c -2.768,24.19 6.646,21.218 5.538,45.029 -1.108,23.811 8.583,46.791 24.365,59.527 15.782,12.736 21.6,6.091 22.149,-1.661 0.549,-7.752 -15.781,-27.687 -16.335,-35.44 -0.554,-7.753 9.137,-1.384 10.244,0.554 1.107,1.938 16.889,17.166 29.9,20.489 13.011,3.323 7.2,-15.782 2.492,-27.134 -4.708,-11.352 3.6,-22.15 19.1,-24.641 15.5,-2.491 22.7,5.814 19.658,16.058 -3.042,10.244 -4.153,24.919 8.86,24.088 13.013,-0.831 34.332,-32.117 35.993,-50.668 1.661,-18.551 4.153,-28.794 16.059,-32.67 11.906,-3.876 33.5,-15.782 33.5,-37.932 0,-22.15 -23.25,-34.61 -23.25,-34.61 z m -46.722,1.107 c -1.592,6.091 -16.4,11.144 -16.4,11.144 0,0 1.873,-21.665 17.862,-26.28 a 43.462,43.462 0 0 1 -1.462,15.136 z m 16.182,39.385 c -5.433,0 -9.85,-5.237 -9.85,-11.673 0,-6.436 4.417,-11.671 9.85,-11.671 5.433,0 9.85,5.235 9.85,11.671 0,6.436 -4.418,11.673 -9.85,11.673 z m 21.311,-43.907 c -4.155,-2.006 -6.5,-3.074 -10.883,-3.517 0,0 2.808,-11.618997 11.345,-14.110997 a 36.68,36.68 0 0 1 -0.462,17.627997 z m 11.6,40.931 c -5.433,0 -9.85,-5.223 -9.85,-11.644 0,-6.421 4.419,-11.648 9.852,-11.648 5.433,0 9.847,5.225 9.847,11.646 0,6.421 -4.418,11.646 -9.847,11.646 z"
     id="cat0"
     fill="#bebebe" />
</svg>
